<mxfile host="app.diagrams.net" agent="Mozilla/5.0 (Windows NT 10.0; Win64; x64) AppleWebKit/537.36 (KHTML, like Gecko) Chrome/134.0.0.0 Safari/537.36" version="27.0.6">
  <diagram name="Page-1" id="u-inf6OvRU2uqsdxemEU">
    <mxGraphModel dx="1042" dy="562" grid="1" gridSize="10" guides="1" tooltips="1" connect="1" arrows="1" fold="1" page="1" pageScale="1" pageWidth="850" pageHeight="1100" math="0" shadow="0">
      <root>
        <mxCell id="0" />
        <mxCell id="1" parent="0" />
        <mxCell id="Evibdh6xgmk0VdYfr_hp-1" value="Application Integration" style="rounded=1;whiteSpace=wrap;html=1;fillColor=#E6E6E6;labelPosition=center;verticalLabelPosition=top;align=center;verticalAlign=bottom;" vertex="1" parent="1">
          <mxGeometry x="1540" y="430" width="350" height="360" as="geometry" />
        </mxCell>
        <mxCell id="Evibdh6xgmk0VdYfr_hp-2" style="edgeStyle=orthogonalEdgeStyle;rounded=0;orthogonalLoop=1;jettySize=auto;html=1;entryX=0.5;entryY=0;entryDx=0;entryDy=0;exitX=0.5;exitY=1;exitDx=0;exitDy=0;" edge="1" parent="1" source="Evibdh6xgmk0VdYfr_hp-50" target="Evibdh6xgmk0VdYfr_hp-5">
          <mxGeometry relative="1" as="geometry">
            <Array as="points">
              <mxPoint x="805" y="900" />
              <mxPoint x="780" y="900" />
            </Array>
          </mxGeometry>
        </mxCell>
        <mxCell id="Evibdh6xgmk0VdYfr_hp-3" value="Interface&lt;br&gt;API&lt;br&gt;Integration" style="edgeStyle=orthogonalEdgeStyle;rounded=0;orthogonalLoop=1;jettySize=auto;html=1;exitX=0.5;exitY=0;exitDx=0;exitDy=0;startArrow=none;startFill=0;entryX=0.5;entryY=1;entryDx=0;entryDy=0;" edge="1" parent="1" source="Evibdh6xgmk0VdYfr_hp-53" target="Evibdh6xgmk0VdYfr_hp-12">
          <mxGeometry x="0.2957" relative="1" as="geometry">
            <mxPoint x="849.8571428571431" y="610" as="targetPoint" />
            <Array as="points">
              <mxPoint x="942" y="650" />
              <mxPoint x="850" y="650" />
            </Array>
            <mxPoint x="-1" as="offset" />
          </mxGeometry>
        </mxCell>
        <mxCell id="Evibdh6xgmk0VdYfr_hp-4" value="Manta" style="rounded=1;whiteSpace=wrap;html=1;fillColor=none;" vertex="1" parent="1">
          <mxGeometry x="760" y="690" width="230" height="140" as="geometry" />
        </mxCell>
        <mxCell id="Evibdh6xgmk0VdYfr_hp-5" value="ETL" style="rounded=1;whiteSpace=wrap;html=1;" vertex="1" parent="1">
          <mxGeometry x="720" y="980" width="120" height="60" as="geometry" />
        </mxCell>
        <mxCell id="Evibdh6xgmk0VdYfr_hp-6" style="edgeStyle=orthogonalEdgeStyle;rounded=0;orthogonalLoop=1;jettySize=auto;html=1;exitX=0.5;exitY=0;exitDx=0;exitDy=0;startArrow=classicThin;startFill=1;entryX=0.5;entryY=1;entryDx=0;entryDy=0;" edge="1" parent="1" source="Evibdh6xgmk0VdYfr_hp-7" target="Evibdh6xgmk0VdYfr_hp-50">
          <mxGeometry relative="1" as="geometry" />
        </mxCell>
        <mxCell id="Evibdh6xgmk0VdYfr_hp-7" value="Stored&amp;nbsp;&lt;br&gt;Procedures" style="rounded=1;whiteSpace=wrap;html=1;" vertex="1" parent="1">
          <mxGeometry x="880" y="980" width="120" height="60" as="geometry" />
        </mxCell>
        <mxCell id="Evibdh6xgmk0VdYfr_hp-8" style="edgeStyle=orthogonalEdgeStyle;rounded=0;orthogonalLoop=1;jettySize=auto;html=1;exitX=0.5;exitY=0;exitDx=0;exitDy=0;entryX=0.5;entryY=1;entryDx=0;entryDy=0;startArrow=classicThin;startFill=1;" edge="1" parent="1" source="Evibdh6xgmk0VdYfr_hp-9" target="Evibdh6xgmk0VdYfr_hp-50">
          <mxGeometry relative="1" as="geometry" />
        </mxCell>
        <mxCell id="Evibdh6xgmk0VdYfr_hp-9" value="Database" style="rounded=1;whiteSpace=wrap;html=1;" vertex="1" parent="1">
          <mxGeometry x="1034.5" y="980" width="120" height="60" as="geometry" />
        </mxCell>
        <mxCell id="Evibdh6xgmk0VdYfr_hp-10" style="edgeStyle=orthogonalEdgeStyle;rounded=0;orthogonalLoop=1;jettySize=auto;html=1;exitX=1;exitY=0.5;exitDx=0;exitDy=0;entryX=0.5;entryY=1;entryDx=0;entryDy=0;" edge="1" parent="1" source="Evibdh6xgmk0VdYfr_hp-12" target="Evibdh6xgmk0VdYfr_hp-70">
          <mxGeometry relative="1" as="geometry" />
        </mxCell>
        <mxCell id="Evibdh6xgmk0VdYfr_hp-11" style="edgeStyle=orthogonalEdgeStyle;rounded=0;orthogonalLoop=1;jettySize=auto;html=1;exitX=1;exitY=0.5;exitDx=0;exitDy=0;entryX=0.5;entryY=1;entryDx=0;entryDy=0;" edge="1" parent="1" source="Evibdh6xgmk0VdYfr_hp-12" target="Evibdh6xgmk0VdYfr_hp-73">
          <mxGeometry relative="1" as="geometry" />
        </mxCell>
        <mxCell id="Evibdh6xgmk0VdYfr_hp-12" value="CP4D&lt;br&gt;Governance&lt;br&gt;Catalogue" style="rounded=1;whiteSpace=wrap;html=1;" vertex="1" parent="1">
          <mxGeometry x="790" y="520" width="120" height="60" as="geometry" />
        </mxCell>
        <mxCell id="Evibdh6xgmk0VdYfr_hp-13" style="edgeStyle=orthogonalEdgeStyle;rounded=0;orthogonalLoop=1;jettySize=auto;html=1;exitX=1;exitY=0.5;exitDx=0;exitDy=0;entryX=0;entryY=0.5;entryDx=0;entryDy=0;startArrow=none;startFill=0;" edge="1" parent="1" source="Evibdh6xgmk0VdYfr_hp-14" target="Evibdh6xgmk0VdYfr_hp-12">
          <mxGeometry relative="1" as="geometry" />
        </mxCell>
        <mxCell id="Evibdh6xgmk0VdYfr_hp-14" value="Manta Connection&lt;br&gt;For Erwin" style="rounded=1;whiteSpace=wrap;html=1;" vertex="1" parent="1">
          <mxGeometry x="590" y="520" width="120" height="60" as="geometry" />
        </mxCell>
        <mxCell id="Evibdh6xgmk0VdYfr_hp-15" style="edgeStyle=orthogonalEdgeStyle;rounded=0;orthogonalLoop=1;jettySize=auto;html=1;exitX=0.5;exitY=1;exitDx=0;exitDy=0;entryX=0;entryY=0.25;entryDx=0;entryDy=0;startArrow=none;startFill=0;exitPerimeter=0;" edge="1" parent="1" source="Evibdh6xgmk0VdYfr_hp-54" target="Evibdh6xgmk0VdYfr_hp-12">
          <mxGeometry relative="1" as="geometry">
            <Array as="points">
              <mxPoint x="650" y="500" />
              <mxPoint x="760" y="500" />
              <mxPoint x="760" y="535" />
            </Array>
          </mxGeometry>
        </mxCell>
        <mxCell id="Evibdh6xgmk0VdYfr_hp-16" value="ODBC" style="edgeLabel;html=1;align=center;verticalAlign=middle;resizable=0;points=[];" vertex="1" connectable="0" parent="Evibdh6xgmk0VdYfr_hp-15">
          <mxGeometry x="0.2463" y="1" relative="1" as="geometry">
            <mxPoint x="-38" as="offset" />
          </mxGeometry>
        </mxCell>
        <mxCell id="Evibdh6xgmk0VdYfr_hp-17" value="UTR" style="rounded=1;whiteSpace=wrap;html=1;" vertex="1" parent="1">
          <mxGeometry x="590" y="353" width="120" height="60" as="geometry" />
        </mxCell>
        <mxCell id="Evibdh6xgmk0VdYfr_hp-18" style="edgeStyle=orthogonalEdgeStyle;rounded=0;orthogonalLoop=1;jettySize=auto;html=1;entryX=1;entryY=0.5;entryDx=0;entryDy=0;" edge="1" parent="1" source="Evibdh6xgmk0VdYfr_hp-22" target="Evibdh6xgmk0VdYfr_hp-4">
          <mxGeometry relative="1" as="geometry" />
        </mxCell>
        <mxCell id="Evibdh6xgmk0VdYfr_hp-19" style="edgeStyle=orthogonalEdgeStyle;rounded=0;orthogonalLoop=1;jettySize=auto;html=1;exitX=0.5;exitY=0;exitDx=0;exitDy=0;entryX=0.75;entryY=1;entryDx=0;entryDy=0;startArrow=none;startFill=0;" edge="1" parent="1" source="Evibdh6xgmk0VdYfr_hp-22" target="Evibdh6xgmk0VdYfr_hp-12">
          <mxGeometry relative="1" as="geometry">
            <Array as="points">
              <mxPoint x="1130" y="630" />
              <mxPoint x="940" y="630" />
              <mxPoint x="940" y="620" />
              <mxPoint x="880" y="620" />
            </Array>
          </mxGeometry>
        </mxCell>
        <mxCell id="Evibdh6xgmk0VdYfr_hp-20" value="ESB" style="edgeLabel;html=1;align=center;verticalAlign=middle;resizable=0;points=[];" vertex="1" connectable="0" parent="Evibdh6xgmk0VdYfr_hp-19">
          <mxGeometry x="0.2064" y="1" relative="1" as="geometry">
            <mxPoint x="41" as="offset" />
          </mxGeometry>
        </mxCell>
        <mxCell id="Evibdh6xgmk0VdYfr_hp-21" style="edgeStyle=orthogonalEdgeStyle;rounded=0;orthogonalLoop=1;jettySize=auto;html=1;exitX=1;exitY=0.5;exitDx=0;exitDy=0;entryX=0.5;entryY=0;entryDx=0;entryDy=0;" edge="1" parent="1" source="Evibdh6xgmk0VdYfr_hp-22" target="Evibdh6xgmk0VdYfr_hp-46">
          <mxGeometry relative="1" as="geometry" />
        </mxCell>
        <mxCell id="Evibdh6xgmk0VdYfr_hp-22" value="CMDB" style="rounded=1;whiteSpace=wrap;html=1;" vertex="1" parent="1">
          <mxGeometry x="1070" y="680" width="120" height="60" as="geometry" />
        </mxCell>
        <mxCell id="Evibdh6xgmk0VdYfr_hp-23" style="edgeStyle=orthogonalEdgeStyle;rounded=0;orthogonalLoop=1;jettySize=auto;html=1;exitX=1;exitY=0.5;exitDx=0;exitDy=0;startArrow=none;startFill=0;strokeColor=#000000;entryX=0;entryY=0.5;entryDx=0;entryDy=0;" edge="1" parent="1" source="Evibdh6xgmk0VdYfr_hp-25" target="Evibdh6xgmk0VdYfr_hp-43">
          <mxGeometry relative="1" as="geometry">
            <mxPoint x="1690" y="580.0000000000002" as="targetPoint" />
          </mxGeometry>
        </mxCell>
        <mxCell id="Evibdh6xgmk0VdYfr_hp-24" style="edgeStyle=orthogonalEdgeStyle;rounded=0;orthogonalLoop=1;jettySize=auto;html=1;exitX=0;exitY=0.5;exitDx=0;exitDy=0;strokeColor=#FF0000;startArrow=classic;startFill=1;entryX=1;entryY=0.75;entryDx=0;entryDy=0;" edge="1" parent="1" source="Evibdh6xgmk0VdYfr_hp-25" target="Evibdh6xgmk0VdYfr_hp-12">
          <mxGeometry relative="1" as="geometry">
            <Array as="points">
              <mxPoint x="1470" y="590" />
              <mxPoint x="1470" y="565" />
            </Array>
          </mxGeometry>
        </mxCell>
        <mxCell id="Evibdh6xgmk0VdYfr_hp-25" value="CP4I" style="rounded=1;whiteSpace=wrap;html=1;" vertex="1" parent="1">
          <mxGeometry x="1560" y="560" width="120" height="60" as="geometry" />
        </mxCell>
        <mxCell id="Evibdh6xgmk0VdYfr_hp-26" style="edgeStyle=orthogonalEdgeStyle;rounded=0;orthogonalLoop=1;jettySize=auto;html=1;exitX=0.5;exitY=1;exitDx=0;exitDy=0;entryX=0.5;entryY=0;entryDx=0;entryDy=0;startArrow=none;startFill=0;" edge="1" parent="1" source="Evibdh6xgmk0VdYfr_hp-28" target="Evibdh6xgmk0VdYfr_hp-12">
          <mxGeometry relative="1" as="geometry" />
        </mxCell>
        <mxCell id="Evibdh6xgmk0VdYfr_hp-27" style="edgeStyle=orthogonalEdgeStyle;rounded=0;orthogonalLoop=1;jettySize=auto;html=1;exitX=0.75;exitY=0;exitDx=0;exitDy=0;entryX=0.5;entryY=1;entryDx=0;entryDy=0;" edge="1" parent="1" source="Evibdh6xgmk0VdYfr_hp-12" target="Evibdh6xgmk0VdYfr_hp-63">
          <mxGeometry relative="1" as="geometry">
            <Array as="points">
              <mxPoint x="880" y="480" />
              <mxPoint x="1010" y="480" />
            </Array>
          </mxGeometry>
        </mxCell>
        <mxCell id="Evibdh6xgmk0VdYfr_hp-28" value="CP4D UI" style="rounded=1;whiteSpace=wrap;html=1;" vertex="1" parent="1">
          <mxGeometry x="790" y="410" width="120" height="60" as="geometry" />
        </mxCell>
        <mxCell id="Evibdh6xgmk0VdYfr_hp-29" value="" style="edgeStyle=orthogonalEdgeStyle;rounded=0;orthogonalLoop=1;jettySize=auto;html=1;startArrow=none;startFill=0;" edge="1" parent="1" source="Evibdh6xgmk0VdYfr_hp-30" target="Evibdh6xgmk0VdYfr_hp-28">
          <mxGeometry relative="1" as="geometry" />
        </mxCell>
        <mxCell id="Evibdh6xgmk0VdYfr_hp-30" value="Data&lt;br&gt;Steward" style="shape=umlActor;verticalLabelPosition=bottom;labelBackgroundColor=#ffffff;verticalAlign=top;html=1;outlineConnect=0;" vertex="1" parent="1">
          <mxGeometry x="835" y="293" width="30" height="60" as="geometry" />
        </mxCell>
        <mxCell id="Evibdh6xgmk0VdYfr_hp-31" value="&lt;h1 style=&quot;font-size: 17px&quot;&gt;&lt;font style=&quot;font-size: 17px ; font-weight: normal&quot;&gt;&lt;span&gt;Captures&lt;/span&gt;&lt;/font&gt;&lt;/h1&gt;&lt;h1 style=&quot;font-size: 17px&quot;&gt;&lt;font style=&quot;font-size: 17px ; font-weight: normal&quot;&gt;&lt;span&gt;Business terms Verfication&lt;/span&gt;&lt;br&gt;&lt;/font&gt;&lt;/h1&gt;&lt;div style=&quot;font-size: 17px&quot;&gt;&lt;span&gt;&lt;font style=&quot;font-size: 17px&quot;&gt;Data Life Cycle&lt;/font&gt;&lt;/span&gt;&lt;/div&gt;" style="text;html=1;strokeColor=none;fillColor=none;spacing=5;spacingTop=-20;whiteSpace=wrap;overflow=hidden;rounded=0;" vertex="1" parent="1">
          <mxGeometry x="710" y="170" width="310" height="120" as="geometry" />
        </mxCell>
        <mxCell id="Evibdh6xgmk0VdYfr_hp-32" style="edgeStyle=orthogonalEdgeStyle;rounded=0;orthogonalLoop=1;jettySize=auto;html=1;exitX=0.5;exitY=0;exitDx=0;exitDy=0;entryX=0.5;entryY=1;entryDx=0;entryDy=0;startArrow=none;startFill=0;" edge="1" parent="1" source="Evibdh6xgmk0VdYfr_hp-34" target="Evibdh6xgmk0VdYfr_hp-50">
          <mxGeometry relative="1" as="geometry" />
        </mxCell>
        <mxCell id="Evibdh6xgmk0VdYfr_hp-33" value="Manta&lt;br&gt;Native Scanner" style="edgeLabel;html=1;align=center;verticalAlign=middle;resizable=0;points=[];" vertex="1" connectable="0" parent="Evibdh6xgmk0VdYfr_hp-32">
          <mxGeometry x="0.6648" y="1" relative="1" as="geometry">
            <mxPoint x="1" y="-9" as="offset" />
          </mxGeometry>
        </mxCell>
        <mxCell id="Evibdh6xgmk0VdYfr_hp-34" value="Events" style="rounded=1;whiteSpace=wrap;html=1;" vertex="1" parent="1">
          <mxGeometry x="550" y="980" width="120" height="60" as="geometry" />
        </mxCell>
        <mxCell id="Evibdh6xgmk0VdYfr_hp-35" style="edgeStyle=orthogonalEdgeStyle;rounded=0;orthogonalLoop=1;jettySize=auto;html=1;exitX=0.5;exitY=1;exitDx=0;exitDy=0;entryX=0.25;entryY=1;entryDx=0;entryDy=0;startArrow=none;startFill=0;strokeColor=#1A1A1A;" edge="1" parent="1" source="Evibdh6xgmk0VdYfr_hp-37" target="Evibdh6xgmk0VdYfr_hp-9">
          <mxGeometry relative="1" as="geometry">
            <Array as="points">
              <mxPoint x="530" y="1080" />
              <mxPoint x="1065" y="1080" />
            </Array>
          </mxGeometry>
        </mxCell>
        <mxCell id="Evibdh6xgmk0VdYfr_hp-36" style="edgeStyle=orthogonalEdgeStyle;rounded=0;orthogonalLoop=1;jettySize=auto;html=1;startArrow=none;startFill=0;entryX=0.25;entryY=0;entryDx=0;entryDy=0;exitX=0;exitY=0.5;exitDx=0;exitDy=0;" edge="1" parent="1" source="Evibdh6xgmk0VdYfr_hp-37" target="Evibdh6xgmk0VdYfr_hp-12">
          <mxGeometry relative="1" as="geometry">
            <Array as="points">
              <mxPoint x="370" y="760" />
              <mxPoint x="370" y="340" />
              <mxPoint x="780" y="340" />
              <mxPoint x="780" y="500" />
              <mxPoint x="820" y="500" />
            </Array>
            <mxPoint x="360" y="760" as="sourcePoint" />
            <mxPoint x="820" y="530" as="targetPoint" />
          </mxGeometry>
        </mxCell>
        <mxCell id="Evibdh6xgmk0VdYfr_hp-37" value="CP4D&lt;br&gt;Quikscan/&lt;br&gt;IMAM" style="rounded=1;whiteSpace=wrap;html=1;fillColor=none;" vertex="1" parent="1">
          <mxGeometry x="470" y="730" width="120" height="60" as="geometry" />
        </mxCell>
        <mxCell id="Evibdh6xgmk0VdYfr_hp-38" style="edgeStyle=orthogonalEdgeStyle;rounded=0;orthogonalLoop=1;jettySize=auto;html=1;exitX=1;exitY=0.5;exitDx=0;exitDy=0;entryX=0;entryY=0.5;entryDx=0;entryDy=0;startArrow=none;startFill=0;strokeColor=#000000;" edge="1" parent="1" source="Evibdh6xgmk0VdYfr_hp-39" target="Evibdh6xgmk0VdYfr_hp-14">
          <mxGeometry relative="1" as="geometry" />
        </mxCell>
        <mxCell id="Evibdh6xgmk0VdYfr_hp-39" value="FSDM" style="rounded=1;whiteSpace=wrap;html=1;" vertex="1" parent="1">
          <mxGeometry x="400" y="520" width="120" height="60" as="geometry" />
        </mxCell>
        <mxCell id="Evibdh6xgmk0VdYfr_hp-40" value="" style="edgeStyle=orthogonalEdgeStyle;rounded=0;orthogonalLoop=1;jettySize=auto;html=1;startArrow=none;startFill=0;strokeColor=#000000;" edge="1" parent="1" source="Evibdh6xgmk0VdYfr_hp-41" target="Evibdh6xgmk0VdYfr_hp-43">
          <mxGeometry relative="1" as="geometry" />
        </mxCell>
        <mxCell id="Evibdh6xgmk0VdYfr_hp-41" value="Application 1" style="rounded=1;whiteSpace=wrap;html=1;strokeColor=#000000;" vertex="1" parent="1">
          <mxGeometry x="1710" y="450" width="120" height="60" as="geometry" />
        </mxCell>
        <mxCell id="Evibdh6xgmk0VdYfr_hp-42" style="edgeStyle=orthogonalEdgeStyle;rounded=0;orthogonalLoop=1;jettySize=auto;html=1;exitX=0.5;exitY=1;exitDx=0;exitDy=0;entryX=0.5;entryY=0;entryDx=0;entryDy=0;startArrow=none;startFill=0;strokeColor=#000000;" edge="1" parent="1" source="Evibdh6xgmk0VdYfr_hp-43" target="Evibdh6xgmk0VdYfr_hp-44">
          <mxGeometry relative="1" as="geometry" />
        </mxCell>
        <mxCell id="Evibdh6xgmk0VdYfr_hp-43" value="Middleware" style="rounded=1;whiteSpace=wrap;html=1;strokeColor=#000000;" vertex="1" parent="1">
          <mxGeometry x="1710" y="560" width="120" height="60" as="geometry" />
        </mxCell>
        <mxCell id="Evibdh6xgmk0VdYfr_hp-44" value="Application 2" style="rounded=1;whiteSpace=wrap;html=1;strokeColor=#000000;" vertex="1" parent="1">
          <mxGeometry x="1710" y="710" width="120" height="60" as="geometry" />
        </mxCell>
        <mxCell id="Evibdh6xgmk0VdYfr_hp-45" style="edgeStyle=orthogonalEdgeStyle;rounded=0;orthogonalLoop=1;jettySize=auto;html=1;exitX=0.5;exitY=1;exitDx=0;exitDy=0;entryX=0.75;entryY=1;entryDx=0;entryDy=0;" edge="1" parent="1" source="Evibdh6xgmk0VdYfr_hp-46" target="Evibdh6xgmk0VdYfr_hp-9">
          <mxGeometry relative="1" as="geometry">
            <mxPoint x="1460" y="940" as="targetPoint" />
            <Array as="points">
              <mxPoint x="1460" y="1080" />
              <mxPoint x="1125" y="1080" />
            </Array>
          </mxGeometry>
        </mxCell>
        <mxCell id="Evibdh6xgmk0VdYfr_hp-46" value="Connection&lt;br&gt;Strings" style="rounded=1;whiteSpace=wrap;html=1;" vertex="1" parent="1">
          <mxGeometry x="1400" y="760" width="120" height="60" as="geometry" />
        </mxCell>
        <mxCell id="Evibdh6xgmk0VdYfr_hp-47" style="edgeStyle=orthogonalEdgeStyle;rounded=0;orthogonalLoop=1;jettySize=auto;html=1;exitX=1;exitY=0.5;exitDx=0;exitDy=0;entryX=0;entryY=0.5;entryDx=0;entryDy=0;" edge="1" parent="1" source="Evibdh6xgmk0VdYfr_hp-50" target="Evibdh6xgmk0VdYfr_hp-52">
          <mxGeometry relative="1" as="geometry" />
        </mxCell>
        <mxCell id="Evibdh6xgmk0VdYfr_hp-48" style="edgeStyle=orthogonalEdgeStyle;rounded=0;orthogonalLoop=1;jettySize=auto;html=1;exitX=0.75;exitY=1;exitDx=0;exitDy=0;" edge="1" parent="1" source="Evibdh6xgmk0VdYfr_hp-50" target="Evibdh6xgmk0VdYfr_hp-58">
          <mxGeometry relative="1" as="geometry">
            <Array as="points">
              <mxPoint x="818" y="840" />
              <mxPoint x="870" y="840" />
              <mxPoint x="870" y="870" />
              <mxPoint x="1240" y="870" />
            </Array>
          </mxGeometry>
        </mxCell>
        <mxCell id="Evibdh6xgmk0VdYfr_hp-49" value="Manta&lt;br&gt;Open API" style="edgeLabel;html=1;align=center;verticalAlign=middle;resizable=0;points=[];" vertex="1" connectable="0" parent="Evibdh6xgmk0VdYfr_hp-48">
          <mxGeometry x="-0.1811" y="1" relative="1" as="geometry">
            <mxPoint y="1" as="offset" />
          </mxGeometry>
        </mxCell>
        <mxCell id="Evibdh6xgmk0VdYfr_hp-50" value="Manta&lt;br&gt;Flow" style="rounded=1;whiteSpace=wrap;html=1;fillColor=none;" vertex="1" parent="1">
          <mxGeometry x="780" y="772" width="50" height="48" as="geometry" />
        </mxCell>
        <mxCell id="Evibdh6xgmk0VdYfr_hp-51" style="edgeStyle=orthogonalEdgeStyle;rounded=0;orthogonalLoop=1;jettySize=auto;html=1;exitX=1;exitY=0.5;exitDx=0;exitDy=0;entryX=0;entryY=0.5;entryDx=0;entryDy=0;" edge="1" parent="1" source="Evibdh6xgmk0VdYfr_hp-52" target="Evibdh6xgmk0VdYfr_hp-53">
          <mxGeometry relative="1" as="geometry" />
        </mxCell>
        <mxCell id="Evibdh6xgmk0VdYfr_hp-52" value="Manta&lt;br&gt;Flow&lt;br&gt;Analyzer" style="rounded=1;whiteSpace=wrap;html=1;fillColor=none;" vertex="1" parent="1">
          <mxGeometry x="850" y="772" width="50" height="48" as="geometry" />
        </mxCell>
        <mxCell id="Evibdh6xgmk0VdYfr_hp-53" value="Manta&lt;br&gt;Data&lt;br&gt;Store" style="rounded=1;whiteSpace=wrap;html=1;fillColor=none;" vertex="1" parent="1">
          <mxGeometry x="917" y="772" width="50" height="48" as="geometry" />
        </mxCell>
        <mxCell id="Evibdh6xgmk0VdYfr_hp-54" value="" style="shape=cylinder3;whiteSpace=wrap;html=1;boundedLbl=1;backgroundOutline=1;size=15;" vertex="1" parent="1">
          <mxGeometry x="630" y="438.5" width="40" height="43" as="geometry" />
        </mxCell>
        <mxCell id="Evibdh6xgmk0VdYfr_hp-55" style="edgeStyle=orthogonalEdgeStyle;rounded=0;orthogonalLoop=1;jettySize=auto;html=1;exitX=0.5;exitY=1;exitDx=0;exitDy=0;entryX=0;entryY=0;entryDx=0;entryDy=15;startArrow=none;startFill=0;entryPerimeter=0;" edge="1" parent="1" source="Evibdh6xgmk0VdYfr_hp-17" target="Evibdh6xgmk0VdYfr_hp-54">
          <mxGeometry relative="1" as="geometry">
            <mxPoint x="860" y="480" as="sourcePoint" />
            <mxPoint x="860" y="530" as="targetPoint" />
            <Array as="points">
              <mxPoint x="650" y="433" />
              <mxPoint x="610" y="433" />
              <mxPoint x="610" y="454" />
            </Array>
          </mxGeometry>
        </mxCell>
        <mxCell id="Evibdh6xgmk0VdYfr_hp-56" style="edgeStyle=orthogonalEdgeStyle;rounded=0;orthogonalLoop=1;jettySize=auto;html=1;exitX=1;exitY=0.5;exitDx=0;exitDy=0;entryX=0;entryY=0.5;entryDx=0;entryDy=0;" edge="1" parent="1" source="Evibdh6xgmk0VdYfr_hp-57" target="Evibdh6xgmk0VdYfr_hp-4">
          <mxGeometry relative="1" as="geometry" />
        </mxCell>
        <mxCell id="Evibdh6xgmk0VdYfr_hp-57" value="Password&lt;br&gt;Vault" style="rounded=1;whiteSpace=wrap;html=1;fillColor=none;" vertex="1" parent="1">
          <mxGeometry x="640" y="726" width="70" height="48" as="geometry" />
        </mxCell>
        <mxCell id="Evibdh6xgmk0VdYfr_hp-58" value="&lt;br&gt;&lt;br&gt;SAAS&lt;br&gt;(SalesForce)" style="rounded=1;whiteSpace=wrap;html=1;" vertex="1" parent="1">
          <mxGeometry x="1180" y="980" width="120" height="60" as="geometry" />
        </mxCell>
        <mxCell id="Evibdh6xgmk0VdYfr_hp-59" value="&lt;font style=&quot;font-size: 8px&quot;&gt;Meta Data&amp;nbsp;API&lt;/font&gt;" style="rounded=1;whiteSpace=wrap;html=1;" vertex="1" parent="1">
          <mxGeometry x="1210" y="983" width="60" height="20" as="geometry" />
        </mxCell>
        <mxCell id="Evibdh6xgmk0VdYfr_hp-60" style="edgeStyle=orthogonalEdgeStyle;rounded=0;orthogonalLoop=1;jettySize=auto;html=1;exitX=0.5;exitY=0;exitDx=0;exitDy=0;entryX=0.25;entryY=1;entryDx=0;entryDy=0;" edge="1" parent="1" source="Evibdh6xgmk0VdYfr_hp-61" target="Evibdh6xgmk0VdYfr_hp-12">
          <mxGeometry relative="1" as="geometry">
            <mxPoint x="780" y="570" as="targetPoint" />
            <Array as="points">
              <mxPoint x="675" y="620" />
              <mxPoint x="820" y="620" />
            </Array>
          </mxGeometry>
        </mxCell>
        <mxCell id="Evibdh6xgmk0VdYfr_hp-61" value="Power&lt;br&gt;Designer" style="rounded=1;whiteSpace=wrap;html=1;" vertex="1" parent="1">
          <mxGeometry x="615" y="640" width="120" height="60" as="geometry" />
        </mxCell>
        <mxCell id="Evibdh6xgmk0VdYfr_hp-62" style="edgeStyle=orthogonalEdgeStyle;rounded=0;orthogonalLoop=1;jettySize=auto;html=1;exitX=0.5;exitY=0;exitDx=0;exitDy=0;" edge="1" parent="1" source="Evibdh6xgmk0VdYfr_hp-63" target="Evibdh6xgmk0VdYfr_hp-64">
          <mxGeometry relative="1" as="geometry" />
        </mxCell>
        <mxCell id="Evibdh6xgmk0VdYfr_hp-63" value="Source to&lt;br&gt;Target Mapping&lt;br&gt;(STTM)" style="rounded=1;whiteSpace=wrap;html=1;" vertex="1" parent="1">
          <mxGeometry x="950" y="330" width="120" height="60" as="geometry" />
        </mxCell>
        <mxCell id="Evibdh6xgmk0VdYfr_hp-64" value="Data&lt;br&gt;Factory" style="rounded=1;whiteSpace=wrap;html=1;" vertex="1" parent="1">
          <mxGeometry x="975" y="220" width="120" height="60" as="geometry" />
        </mxCell>
        <mxCell id="Evibdh6xgmk0VdYfr_hp-65" style="edgeStyle=orthogonalEdgeStyle;rounded=0;orthogonalLoop=1;jettySize=auto;html=1;exitX=1;exitY=0.5;exitDx=0;exitDy=0;entryX=0;entryY=0.75;entryDx=0;entryDy=0;" edge="1" parent="1" source="Evibdh6xgmk0VdYfr_hp-66" target="Evibdh6xgmk0VdYfr_hp-12">
          <mxGeometry relative="1" as="geometry">
            <Array as="points">
              <mxPoint x="540" y="670" />
              <mxPoint x="540" y="610" />
              <mxPoint x="750" y="610" />
              <mxPoint x="750" y="565" />
            </Array>
          </mxGeometry>
        </mxCell>
        <mxCell id="Evibdh6xgmk0VdYfr_hp-66" value="SalesForce&lt;br&gt;Blueprint" style="rounded=1;whiteSpace=wrap;html=1;" vertex="1" parent="1">
          <mxGeometry x="400" y="640" width="120" height="60" as="geometry" />
        </mxCell>
        <mxCell id="Evibdh6xgmk0VdYfr_hp-67" style="edgeStyle=orthogonalEdgeStyle;rounded=0;orthogonalLoop=1;jettySize=auto;html=1;exitX=0.5;exitY=0;exitDx=0;exitDy=0;entryX=1;entryY=1;entryDx=0;entryDy=0;" edge="1" parent="1" source="Evibdh6xgmk0VdYfr_hp-68" target="Evibdh6xgmk0VdYfr_hp-12">
          <mxGeometry relative="1" as="geometry" />
        </mxCell>
        <mxCell id="Evibdh6xgmk0VdYfr_hp-68" value="Data Profiling&lt;br&gt;Data Quality&lt;br&gt;Metrics" style="rounded=1;whiteSpace=wrap;html=1;" vertex="1" parent="1">
          <mxGeometry x="1210" y="620" width="120" height="60" as="geometry" />
        </mxCell>
        <mxCell id="Evibdh6xgmk0VdYfr_hp-69" style="edgeStyle=orthogonalEdgeStyle;rounded=0;orthogonalLoop=1;jettySize=auto;html=1;exitX=0.5;exitY=0;exitDx=0;exitDy=0;" edge="1" parent="1" source="Evibdh6xgmk0VdYfr_hp-70" target="Evibdh6xgmk0VdYfr_hp-71">
          <mxGeometry relative="1" as="geometry" />
        </mxCell>
        <mxCell id="Evibdh6xgmk0VdYfr_hp-70" value="Data Life Cycle&lt;br&gt;Management/&lt;br&gt;Data Classification" style="rounded=1;whiteSpace=wrap;html=1;" vertex="1" parent="1">
          <mxGeometry x="1087.5" y="330" width="120" height="60" as="geometry" />
        </mxCell>
        <mxCell id="Evibdh6xgmk0VdYfr_hp-71" value="Data&lt;br&gt;Factory" style="rounded=1;whiteSpace=wrap;html=1;" vertex="1" parent="1">
          <mxGeometry x="1112.5" y="220" width="120" height="60" as="geometry" />
        </mxCell>
        <mxCell id="Evibdh6xgmk0VdYfr_hp-72" style="edgeStyle=orthogonalEdgeStyle;rounded=0;orthogonalLoop=1;jettySize=auto;html=1;exitX=0.5;exitY=0;exitDx=0;exitDy=0;" edge="1" parent="1" source="Evibdh6xgmk0VdYfr_hp-73" target="Evibdh6xgmk0VdYfr_hp-74">
          <mxGeometry relative="1" as="geometry" />
        </mxCell>
        <mxCell id="Evibdh6xgmk0VdYfr_hp-73" value="Reference Data&lt;br&gt;Management" style="rounded=1;whiteSpace=wrap;html=1;" vertex="1" parent="1">
          <mxGeometry x="1380" y="330" width="120" height="60" as="geometry" />
        </mxCell>
        <mxCell id="Evibdh6xgmk0VdYfr_hp-74" value="Consumers" style="rounded=1;whiteSpace=wrap;html=1;" vertex="1" parent="1">
          <mxGeometry x="1390" y="220" width="120" height="60" as="geometry" />
        </mxCell>
      </root>
    </mxGraphModel>
  </diagram>
</mxfile>
